<?xml version="1.0" standalone="no"?>
<!DOCTYPE svg PUBLIC "-//W3C//DTD SVG 20010904//EN"
 "http://www.w3.org/TR/2001/REC-SVG-20010904/DTD/svg10.dtd">
<svg version="1.0" xmlns="http://www.w3.org/2000/svg"
 width="200.000000pt" height="200.000000pt" viewBox="0 0 200.000000 200.000000"
 preserveAspectRatio="xMidYMid meet">
<metadata>
Created by potrace 1.14, written by Peter Selinger 2001-2017
</metadata>
<g transform="translate(0.000000,200.000000) scale(0.100000,-0.100000)"
fill="#000000" stroke="none">
<path d="M948 1809 c-295 -32 -514 -275 -507 -564 7 -281 197 -499 479 -547
222 -38 466 86 574 292 49 92 66 174 62 290 -5 149 -55 261 -165 371 -87 86
-199 142 -314 155 -29 4 -54 7 -57 8 -3 1 -35 -1 -72 -5z m202 -106 c146 -52
251 -158 300 -304 69 -203 -15 -433 -200 -551 -149 -95 -364 -91 -512 8 -342
231 -252 751 149 859 66 17 195 11 263 -12z"/>
<path d="M733 1522 c-18 -2 -37 -11 -42 -20 -14 -27 -8 -429 6 -443 17 -17
585 -18 606 -1 12 10 14 50 13 227 -1 144 -5 218 -12 225 -11 11 -483 20 -571
12z m488 -81 c13 -1 15 -23 16 -156 l1 -155 -27 -1 c-134 -4 -416 -3 -430 3
-17 6 -18 21 -18 157 l0 150 31 3 c25 2 359 1 427 -1z"/>
<path d="M1102 1383 c-7 -3 -39 -31 -72 -64 -33 -32 -63 -59 -67 -59 -4 0 -19
12 -34 26 -30 29 -69 26 -69 -5 0 -17 88 -111 104 -111 16 0 176 164 176 181
0 20 -21 38 -38 32z"/>
<path d="M851 982 c-21 -40 0 -47 144 -48 149 -1 176 7 155 47 -10 17 -23 19
-150 19 -124 0 -140 -2 -149 -18z"/>
<path d="M585 532 c-11 -2 -30 -13 -42 -25 -19 -17 -23 -31 -23 -79 0 -78 24
-103 104 -113 37 -5 56 -12 56 -21 0 -10 -21 -14 -77 -16 l-78 -3 -3 -43 c-3
-42 -3 -42 32 -43 157 -4 185 -1 211 26 21 20 25 34 25 85 0 47 -4 64 -20 80
-11 11 -23 20 -27 20 -22 1 -90 12 -101 16 -8 2 -12 9 -10 16 3 7 28 11 71 11
43 0 67 4 68 11 9 80 7 82 -83 82 -46 0 -92 -2 -103 -4z"/>
<path d="M849 531 c-1 -3 -3 -81 -4 -173 l-2 -168 73 -1 c173 -2 182 -1 204
21 36 36 24 170 -16 170 -11 0 -12 4 -4 19 16 31 12 87 -8 111 -17 21 -28 23
-130 25 -62 1 -113 0 -113 -4z m159 -105 c-2 -14 -11 -22 -30 -24 -24 -3 -27
0 -24 25 4 34 1 31 32 25 19 -3 24 -10 22 -26z m21 -119 c12 -31 5 -37 -39
-37 -36 0 -39 2 -36 28 4 33 0 29 37 30 22 0 32 -5 38 -21z"/>
<path d="M1199 535 c-1 0 -2 -76 -3 -169 -1 -137 1 -169 13 -174 12 -5 98 -6
227 -3 l41 1 0 90 c0 69 -3 90 -13 91 -8 1 -31 2 -51 3 l-38 1 -3 -47 c-3 -47
-4 -48 -35 -48 l-33 0 1 125 c1 80 -3 126 -10 127 -9 1 -94 4 -96 3z"/>
</g>
</svg>
